<svg width="248" height="432" xmlns="http://www.w3.org/2000/svg">
 <defs>
  <clipPath id="a">
   <path id="svg_1" d="m-156.000002,592.640001l510.24,0l0,-510.24l-510.24,0l0,510.24z"/>
  </clipPath>
 </defs>
 <g>
  <title>background</title>
  <rect fill="none" id="canvas_background" height="434" width="250" y="-1" x="-1"/>
 </g>
 <g>
  <title>Layer 1</title>
  <g id="svg_2" transform="matrix(1.25,0,0,-1.25,0,637.8) ">
   <g id="svg_3" clip-path="url(#a)">
    <g id="svg_4">
     <path id="svg_5" fill="#d1d3d4" d="m167.100004,254.329994c-1.334,-3.735 -4.408,-6.051 -6.867,-5.175l-22.524,8.049c-2.457,0.878 -3.367,4.619 -2.035,8.354c1.336,3.736 4.41,6.05 6.869,5.173l22.52,-8.047c2.461,-0.879 3.371,-4.62 2.037,-8.354"/>
    </g>
    <g id="svg_6">
     <path id="svg_7" fill="#636466" d="m167.100004,254.329994l-2.002,0.715c-0.461,-1.296 -1.184,-2.356 -1.924,-3.028c-0.367,-0.337 -0.734,-0.579 -1.056,-0.723c-0.323,-0.147 -0.592,-0.198 -0.801,-0.198c-0.139,0.001 -0.256,0.021 -0.371,0.062l0.011,-0.005l-22.531,8.053c-0.14,0.051 -0.26,0.122 -0.392,0.245c-0.196,0.181 -0.413,0.493 -0.579,0.957c-0.164,0.46 -0.269,1.059 -0.269,1.736c0,0.822 0.154,1.755 0.49,2.699c0.461,1.296 1.186,2.354 1.924,3.027c0.367,0.338 0.736,0.578 1.057,0.724c0.324,0.146 0.593,0.197 0.8,0.197c0.141,0 0.256,-0.021 0.372,-0.062l22.519,-8.046c0.139,-0.051 0.26,-0.124 0.393,-0.246c0.197,-0.181 0.414,-0.495 0.578,-0.958c0.164,-0.46 0.269,-1.058 0.269,-1.736c0,-0.82 -0.152,-1.754 -0.49,-2.697l2.002,-0.716l2.002,-0.716c0.496,1.39 0.738,2.79 0.738,4.129c-0.002,1.474 -0.289,2.882 -0.933,4.121c-0.323,0.618 -0.741,1.193 -1.266,1.682c-0.521,0.489 -1.156,0.888 -1.861,1.14l-22.52,8.047c-0.59,0.211 -1.203,0.311 -1.803,0.31c-0.9,0 -1.765,-0.219 -2.554,-0.576c-1.188,-0.541 -2.227,-1.39 -3.11,-2.442c-0.882,-1.054 -1.609,-2.323 -2.121,-3.753c-0.494,-1.388 -0.736,-2.789 -0.738,-4.128c0.004,-1.472 0.289,-2.881 0.934,-4.121c0.322,-0.617 0.74,-1.192 1.265,-1.681c0.522,-0.49 1.154,-0.889 1.862,-1.14l22.521,-8.049l0.004,-0.001c0.586,-0.209 1.197,-0.308 1.797,-0.308c0.902,0.001 1.765,0.218 2.556,0.577c1.188,0.541 2.227,1.389 3.11,2.441c0.883,1.055 1.607,2.323 2.119,3.753l-2.002,0.715z"/>
    </g>
    <g id="svg_8">
     <path id="svg_9" fill="#d1d3d4" d="m171.969999,220.780006c-4.477,-0.523 -8.531,2.68 -9.053,7.156l-4.789,41.003c-0.521,4.475 2.684,8.529 7.16,9.051c4.475,0.522 8.53,-2.683 9.051,-7.159l4.787,-41c0.524,-4.478 -2.681,-8.529 -7.156,-9.051"/>
    </g>
    <g id="svg_10">
     <path id="svg_11" fill="#636466" d="m171.969999,220.780006l-0.246,2.111c-0.24,-0.027 -0.477,-0.041 -0.711,-0.041c-1.508,0 -2.912,0.563 -3.99,1.515c-1.076,0.955 -1.813,2.274 -1.994,3.817l-4.789,41.004c-0.028,0.24 -0.041,0.476 -0.041,0.709c0,1.507 0.564,2.91 1.515,3.989c0.957,1.078 2.277,1.814 3.82,1.995c0.241,0.027 0.477,0.041 0.709,0.041c1.506,0 2.911,-0.564 3.989,-1.516c1.078,-0.956 1.814,-2.276 1.996,-3.819l4.787,-41c0.027,-0.241 0.041,-0.478 0.041,-0.712c0,-1.507 -0.563,-2.909 -1.516,-3.988c-0.953,-1.077 -2.273,-1.812 -3.816,-1.994l0.246,-2.111l0.246,-2.111c2.611,0.303 4.897,1.572 6.51,3.4c1.617,1.825 2.582,4.228 2.582,6.804c0,0.398 -0.022,0.801 -0.07,1.205l-4.788,41c-0.302,2.611 -1.574,4.898 -3.402,6.512c-1.826,1.616 -4.228,2.582 -6.805,2.582c-0.398,0 -0.798,-0.023 -1.203,-0.071c-2.611,-0.302 -4.898,-1.573 -6.511,-3.401c-1.616,-1.826 -2.582,-4.229 -2.582,-6.805c0,-0.398 0.023,-0.8 0.07,-1.202l4.789,-41.004c0.303,-2.611 1.572,-4.897 3.402,-6.51c1.826,-1.615 4.229,-2.581 6.805,-2.581c0.398,0 0.801,0.023 1.205,0.071l-0.248,2.111z"/>
    </g>
    <g id="svg_12">
     <path id="svg_13" fill="#d1d3d4" d="m173.079984,207.380005c-12.354,-1.442 -23.066,3.364 -23.926,10.738c-0.861,7.37 8.453,14.517 20.807,15.959c12.353,1.445 23.066,-3.365 23.926,-10.736c0.861,-7.372 -8.455,-14.519 -20.807,-15.961"/>
    </g>
    <g id="svg_14">
     <path id="svg_15" fill="#636466" d="m173.079984,207.380005l-0.246,2.111c-1.397,-0.163 -2.77,-0.241 -4.104,-0.241c-4.906,-0.005 -9.291,1.076 -12.384,2.797c-1.547,0.856 -2.768,1.865 -3.614,2.934c-0.845,1.074 -1.324,2.186 -1.466,3.383c-0.028,0.236 -0.041,0.469 -0.041,0.703c0,1.294 0.41,2.622 1.267,3.977c1.275,2.026 3.586,4.047 6.656,5.645c3.067,1.602 6.871,2.789 11.059,3.277c1.398,0.163 2.771,0.241 4.105,0.241c4.907,0.005 9.289,-1.075 12.383,-2.796c1.549,-0.857 2.77,-1.866 3.614,-2.934c0.845,-1.074 1.324,-2.186 1.466,-3.382c0.028,-0.235 0.041,-0.469 0.041,-0.702c-0.002,-1.295 -0.41,-2.623 -1.267,-3.979c-1.278,-2.027 -3.588,-4.048 -6.656,-5.645c-3.067,-1.603 -6.872,-2.789 -11.061,-3.278l0.248,-2.111l0.246,-2.111c6.236,0.732 11.766,2.822 15.863,5.777c2.047,1.48 3.741,3.185 4.952,5.093c1.209,1.902 1.929,4.035 1.927,6.254c0,0.396 -0.023,0.796 -0.07,1.195c-0.236,2.047 -1.09,3.932 -2.355,5.527c-1.909,2.401 -4.702,4.205 -8.012,5.444c-3.319,1.234 -7.18,1.899 -11.319,1.9c-1.5,0 -3.037,-0.088 -4.597,-0.27c-6.239,-0.733 -11.768,-2.823 -15.864,-5.777c-2.046,-1.481 -3.74,-3.184 -4.951,-5.093c-1.209,-1.901 -1.929,-4.034 -1.927,-6.252c0,-0.398 0.023,-0.797 0.07,-1.196c0.236,-2.048 1.088,-3.932 2.355,-5.528c1.909,-2.401 4.702,-4.205 8.014,-5.443c3.316,-1.236 7.18,-1.9 11.318,-1.902c1.5,0 3.037,0.088 4.596,0.271l-0.246,2.111z"/>
    </g>
    <g id="svg_16">
     <path id="svg_17" fill="#d1d3d4" d="m173.079984,207.380005c-10.893,-1.273 -20.229,2.03 -20.854,7.375c-0.623,5.348 7.7,10.712 18.594,11.983c10.891,1.272 20.227,-2.03 20.852,-7.375c0.623,-5.347 -7.701,-10.712 -18.592,-11.983"/>
    </g>
    <g id="svg_18">
     <path id="svg_19" fill="#d1d3d4" d="m174.589994,194.410003l7.061,24.809"/>
    </g>
    <g id="svg_20">
     <path id="svg_21" fill="#d1d3d4" d="m162.010007,216.93l12.588,-22.515"/>
    </g>
    <g id="svg_22">
     <path id="svg_23" fill="#636466" d="m188.579984,216.299995c-1.066,-1.42 -3.121,-2.96 -5.863,-4.188c-0.323,-0.146 -0.656,-0.287 -0.995,-0.423l1.977,6.949l-4.09,1.164l-2.736,-9.617c-1.289,-0.295 -2.641,-0.53 -4.039,-0.693l0.246,-2.111l-0.248,2.111c-1.401,-0.164 -2.771,-0.24 -4.095,-0.25l-4.876,8.721l-3.711,-2.074l3.523,-6.301c-2.154,0.328 -4.048,0.867 -5.532,1.56c-1.256,0.58 -2.213,1.259 -2.827,1.927c-0.617,0.676 -0.898,1.292 -0.976,1.928c-0.012,0.107 -0.018,0.212 -0.018,0.318c0,0.718 0.278,1.548 0.998,2.5c1.067,1.419 3.121,2.96 5.864,4.188c2.738,1.235 6.146,2.184 9.884,2.619c1.496,0.175 2.959,0.258 4.366,0.258c4.15,0.005 7.816,-0.742 10.326,-1.913c1.256,-0.58 2.213,-1.26 2.826,-1.928c0.619,-0.676 0.898,-1.292 0.976,-1.928l-0.001,0.027l0.001,-0.025c0.012,-0.106 0.018,-0.213 0.018,-0.319c0,-0.718 -0.277,-1.548 -0.998,-2.5m-14.213,-14.919c-0.194,-0.007 -0.389,-0.011 -0.582,-0.034c-0.196,-0.023 -0.39,-0.057 -0.58,-0.095l-2.136,3.819c0.745,0.047 1.496,0.11 2.257,0.199c0.76,0.089 1.505,0.201 2.24,0.326l-1.199,-4.215zm19.416,18.229l0,0.004l-0.002,0.022l0.002,-0.021c-0.189,1.647 -0.973,3.129 -2.076,4.315c-1.664,1.788 -4.01,3.035 -6.783,3.898c-2.778,0.857 -6.006,1.309 -9.492,1.31c-1.575,0 -3.2,-0.093 -4.86,-0.287c-5.525,-0.65 -10.439,-2.278 -14.121,-4.536c-1.84,-1.135 -3.381,-2.43 -4.517,-3.919c-1.129,-1.482 -1.866,-3.214 -1.866,-5.075c0,-0.27 0.016,-0.541 0.047,-0.811c0.19,-1.649 0.973,-3.133 2.074,-4.319c1.664,-1.787 4.012,-3.036 6.784,-3.899c2.166,-0.668 4.611,-1.081 7.233,-1.235l3.289,-5.883c-0.043,-0.046 -0.09,-0.089 -0.132,-0.137c-1.097,-1.238 -1.754,-2.871 -1.754,-4.622c0,-0.268 0.016,-0.54 0.047,-0.811l0,-0.002c0.207,-1.772 1.07,-3.327 2.311,-4.421c1.238,-1.097 2.869,-1.754 4.619,-1.754c0.271,0 0.545,0.016 0.818,0.048c1.772,0.205 3.328,1.068 4.422,2.308c1.096,1.24 1.754,2.871 1.754,4.621c0,0.271 -0.016,0.543 -0.049,0.818c-0.205,1.771 -1.07,3.327 -2.31,4.421c-0.24,0.211 -0.497,0.401 -0.763,0.578l1.846,6.484c2.684,0.805 5.107,1.852 7.143,3.102c1.84,1.134 3.381,2.43 4.518,3.919c1.129,1.481 1.865,3.214 1.865,5.074c0,0.269 -0.014,0.539 -0.047,0.81"/>
    </g>
    <g id="svg_24">
     <path id="svg_25" fill="#2bb673" d="m149.920011,293.650001c-3.092,13.241 -10.141,37.25 -23.557,47.5c-12.683,9.69 -27.216,14.557 -36.503,13.92c-9.287,0.637 -23.819,-4.23 -36.503,-13.92c-13.416,-10.25 -20.465,-34.259 -23.557,-47.5c-1.885,-8.074 -7.707,-38.275 0.52,-39.362c18.928,-2.5 24.761,76.958 36.14,56.362c4.42,-8 5.46,-89.75 -6.552,-114.5c-2.821,-5.814 -27.036,-7.425 -28.496,-13.5c-1.123,-4.674 2.706,-11.942 8.32,-13.5c11.084,-3.074 34.46,5.403 40.768,15c8.1,12.322 5.445,51.309 9.36,53c3.914,-1.691 1.26,-40.678 9.36,-53c6.307,-9.597 29.684,-18.074 40.768,-15c5.614,1.558 9.444,8.826 8.321,13.5c-1.461,6.075 -25.676,7.686 -28.496,13.5c-12.012,24.75 -10.973,106.5 -6.553,114.5c11.379,20.596 17.211,-58.862 36.14,-56.362c8.227,1.087 2.405,31.288 0.52,39.362"/>
    </g>
    <g id="svg_26">
     <path id="svg_27" fill="#004928" d="m149.920011,293.650001l2.07,0.483c-1.564,6.694 -4.123,16.11 -8.021,25.225c-1.953,4.559 -4.24,9.045 -6.93,13.086c-2.691,4.039 -5.783,7.642 -9.385,10.395c-6.138,4.69 -12.687,8.275 -18.931,10.703c-6.248,2.424 -12.179,3.704 -17.194,3.71c-0.618,0 -1.223,-0.02 -1.815,-0.061l0.146,-2.121l0.146,2.121c-0.591,0.041 -1.196,0.061 -1.815,0.061c-5.014,-0.006 -10.946,-1.286 -17.194,-3.71c-6.244,-2.428 -12.792,-6.013 -18.931,-10.703c-3.601,-2.753 -6.694,-6.356 -9.385,-10.395c-4.033,-6.062 -7.168,-13.124 -9.608,-19.932c-2.437,-6.806 -4.171,-13.359 -5.343,-18.379c-0.587,-2.518 -1.536,-7.071 -2.342,-12.257c-0.807,-5.189 -1.474,-10.992 -1.476,-16.056c0.006,-3.25 0.259,-6.187 1.042,-8.61c0.399,-1.211 0.935,-2.318 1.763,-3.243c0.413,-0.46 0.905,-0.868 1.471,-1.179c0.563,-0.313 1.199,-0.523 1.854,-0.608c0.385,-0.051 0.769,-0.076 1.149,-0.076c1.338,-0.002 2.633,0.317 3.814,0.873c2.221,1.051 4.058,2.857 5.714,5.091c2.887,3.923 5.273,9.285 7.46,15.182c3.264,8.835 6.021,18.879 8.632,26.632c1.299,3.87 2.575,7.171 3.768,9.352c0.59,1.088 1.167,1.886 1.6,2.303c0.214,0.211 0.385,0.323 0.474,0.367l0.08,0.032l0.004,0.001l-0.009,0.075l0,-0.075l0.009,0l-0.009,0.075l0,-0.075l0,0.049l-0.011,-0.049l0.011,0l0,0.049l-0.011,-0.049c0.005,-0.001 0.048,-0.01 0.142,-0.068c0.142,-0.084 0.392,-0.288 0.697,-0.659c0.305,-0.37 0.663,-0.898 1.044,-1.588c0.086,-0.146 0.281,-0.632 0.46,-1.32c0.323,-1.213 0.65,-3.062 0.936,-5.368c0.865,-6.934 1.405,-18.012 1.403,-30.519c0.001,-13.632 -0.635,-28.996 -2.144,-42.712c-0.755,-6.857 -1.728,-13.302 -2.939,-18.895c-1.209,-5.591 -2.669,-10.336 -4.32,-13.729c-0.086,-0.203 -0.469,-0.662 -1.227,-1.151c-1.312,-0.871 -3.59,-1.779 -6.209,-2.612c-3.944,-1.267 -8.661,-2.43 -12.623,-3.815c-1.988,-0.7 -3.79,-1.446 -5.291,-2.381c-0.751,-0.471 -1.433,-0.992 -2.015,-1.632c-0.577,-0.636 -1.065,-1.417 -1.286,-2.341c-0.176,-0.734 -0.255,-1.486 -0.255,-2.243c0.013,-2.831 1.053,-5.753 2.775,-8.276c0.867,-1.259 1.913,-2.415 3.133,-3.374c1.22,-0.958 2.617,-1.722 4.166,-2.153c1.819,-0.503 3.823,-0.717 5.957,-0.718c3.217,0.001 6.736,0.492 10.321,1.344c5.376,1.282 10.899,3.383 15.67,5.991c2.385,1.306 4.583,2.74 6.483,4.282c1.897,1.544 3.504,3.193 4.681,4.982c1.166,1.778 2.068,3.901 2.819,6.273c1.307,4.15 2.147,9.081 2.761,14.205c0.914,7.679 1.3,15.796 1.78,22.077c0.238,3.134 0.504,5.818 0.843,7.67c0.166,0.921 0.359,1.637 0.514,2.019c0.038,0.095 0.073,0.167 0.097,0.214l0.035,0.062l-0.16,0.107l0.147,-0.123l0.013,0.016l-0.16,0.107l0.147,-0.123l-0.831,0.689l0.422,-0.976c0.258,0.113 0.378,0.249 0.409,0.287l-0.831,0.689l0.422,-0.976l-0.843,1.951l-0.843,-1.951l0.439,1.016l-0.837,-0.744c0.044,-0.048 0.165,-0.172 0.398,-0.272l0.439,1.016l-0.837,-0.744l0.341,0.303l-0.362,-0.276l0.021,-0.027l0.341,0.303l-0.362,-0.276l0.055,0.042l-0.058,-0.038l0.003,-0.004l0.055,0.042l-0.058,-0.038c0.019,-0.021 0.154,-0.28 0.276,-0.692c0.24,-0.777 0.482,-2.071 0.681,-3.673c0.355,-2.812 0.616,-6.601 0.897,-10.82c0.424,-6.335 0.899,-13.65 1.878,-20.36c0.49,-3.357 1.107,-6.563 1.923,-9.445c0.819,-2.882 1.826,-5.443 3.193,-7.53c1.574,-2.383 3.899,-4.527 6.678,-6.487c4.17,-2.931 9.391,-5.427 14.766,-7.224c5.377,-1.791 10.888,-2.883 15.713,-2.888c2.132,0.001 4.136,0.215 5.957,0.718c1.549,0.431 2.945,1.195 4.164,2.153c1.83,1.441 3.275,3.315 4.293,5.333c1.013,2.022 1.611,4.192 1.617,6.317c-0.002,0.757 -0.08,1.509 -0.256,2.243c-0.168,0.701 -0.494,1.328 -0.891,1.861c-0.755,1.002 -1.738,1.728 -2.847,2.375c-1.944,1.119 -4.354,1.99 -6.967,2.818c-3.908,1.231 -8.271,2.331 -11.777,3.535c-1.748,0.599 -3.28,1.226 -4.375,1.849c-0.547,0.308 -0.983,0.614 -1.28,0.88c-0.3,0.268 -0.455,0.488 -0.513,0.613c-1.651,3.394 -3.112,8.139 -4.321,13.73c-1.818,8.391 -3.095,18.693 -3.91,29.438c-0.816,10.747 -1.174,21.944 -1.174,32.169c0,9.533 0.311,18.225 0.844,24.899c0.266,3.335 0.59,6.168 0.947,8.318c0.178,1.075 0.366,1.979 0.549,2.67c0.18,0.688 0.375,1.174 0.461,1.32c0.578,1.053 1.111,1.724 1.469,2.04c0.18,0.16 0.307,0.232 0.365,0.258l0.049,0.017l-0.012,0.049l0,-0.049l0.012,0l-0.012,0.049l0,-0.049l0,0.046l-0.01,-0.046l0.01,0l0,0.046l-0.01,-0.046c0.006,-0.001 0.051,-0.011 0.151,-0.069c0.189,-0.11 0.551,-0.424 0.955,-0.963c0.769,-1.007 1.676,-2.741 2.58,-4.932c1.596,-3.842 3.25,-9.086 4.998,-14.752c2.633,-8.509 5.483,-17.969 8.945,-25.459c1.741,-3.748 3.621,-7.013 5.836,-9.473c1.112,-1.228 2.315,-2.259 3.662,-3.002c1.342,-0.744 2.848,-1.186 4.418,-1.183c0.383,0 0.766,0.025 1.151,0.076c0.656,0.085 1.291,0.295 1.855,0.608c0.994,0.549 1.739,1.378 2.287,2.293c0.821,1.383 1.278,2.998 1.577,4.801c0.293,1.805 0.41,3.807 0.412,5.938c-0.002,5.064 -0.67,10.867 -1.477,16.056c-0.807,5.187 -1.754,9.739 -2.342,12.257l-2.07,-0.483l-2.07,-0.483c0.56,-2.405 1.494,-6.887 2.281,-11.945c0.789,-5.055 1.428,-10.708 1.426,-15.402c0.006,-2.998 -0.278,-5.616 -0.832,-7.29c-0.272,-0.838 -0.604,-1.417 -0.881,-1.717c-0.139,-0.153 -0.258,-0.243 -0.365,-0.303c-0.11,-0.058 -0.209,-0.094 -0.358,-0.115c-0.203,-0.026 -0.4,-0.039 -0.594,-0.039c-0.675,0.002 -1.318,0.15 -2.005,0.471c-1.284,0.593 -2.706,1.868 -4.102,3.767c-2.455,3.313 -4.781,8.41 -6.891,14.13c-3.179,8.594 -5.925,18.587 -8.589,26.515c-1.34,3.972 -2.647,7.42 -4.067,10.031c-0.717,1.308 -1.455,2.415 -2.357,3.305c-0.453,0.442 -0.955,0.834 -1.543,1.13c-0.584,0.295 -1.27,0.485 -1.981,0.484c-0.609,0.001 -1.22,-0.14 -1.765,-0.384c-0.823,-0.369 -1.502,-0.936 -2.114,-1.623c-0.613,-0.691 -1.168,-1.517 -1.714,-2.504c-0.368,-0.677 -0.61,-1.404 -0.848,-2.285c-0.404,-1.531 -0.742,-3.512 -1.045,-5.932c-0.902,-7.245 -1.436,-18.406 -1.438,-31.046c0,-13.765 0.639,-29.25 2.172,-43.177c0.766,-6.965 1.756,-13.539 3.01,-19.33c1.258,-5.794 2.766,-10.797 4.649,-14.686c0.621,-1.252 1.611,-2.114 2.722,-2.85c1.961,-1.274 4.475,-2.21 7.242,-3.105c4.137,-1.324 8.838,-2.488 12.514,-3.779c1.832,-0.639 3.404,-1.318 4.441,-1.972c0.52,-0.324 0.899,-0.637 1.122,-0.885c0.224,-0.25 0.283,-0.405 0.3,-0.478c0.09,-0.367 0.139,-0.788 0.137,-1.249c0.014,-1.731 -0.728,-3.998 -2.025,-5.867c-0.645,-0.939 -1.416,-1.781 -2.258,-2.441c-0.842,-0.662 -1.748,-1.14 -2.674,-1.397c-1.332,-0.371 -2.979,-0.565 -4.82,-0.564c-2.784,-0.001 -6.01,0.435 -9.336,1.229c-4.994,1.187 -10.217,3.177 -14.615,5.585c-2.198,1.202 -4.19,2.509 -5.842,3.851c-1.653,1.34 -2.959,2.72 -3.811,4.018c-0.858,1.302 -1.646,3.093 -2.316,5.218c-1.178,3.721 -2.001,8.447 -2.593,13.427c-0.893,7.478 -1.278,15.525 -1.764,21.897c-0.244,3.192 -0.507,5.956 -0.898,8.109c-0.2,1.082 -0.422,2.008 -0.751,2.837c-0.168,0.416 -0.361,0.813 -0.65,1.209c-0.287,0.389 -0.692,0.811 -1.321,1.086l-0.843,0.365l-0.843,-0.365c-0.477,-0.207 -0.83,-0.509 -1.094,-0.805c-0.505,-0.582 -0.759,-1.163 -0.99,-1.791c-0.414,-1.172 -0.675,-2.575 -0.91,-4.273c-0.402,-2.959 -0.668,-6.777 -0.955,-11.033c-0.426,-6.377 -0.892,-13.723 -1.837,-20.32c-0.472,-3.296 -1.065,-6.404 -1.816,-9.083c-0.747,-2.679 -1.666,-4.926 -2.691,-6.478c-1.133,-1.733 -3.083,-3.602 -5.571,-5.346c-3.728,-2.626 -8.636,-4.992 -13.666,-6.668c-5.025,-1.681 -10.19,-2.674 -14.366,-2.669c-1.844,-0.001 -3.488,0.193 -4.82,0.564c-0.928,0.257 -1.833,0.735 -2.675,1.397c-1.263,0.99 -2.365,2.394 -3.122,3.903c-0.763,1.505 -1.167,3.109 -1.162,4.405c0,0.461 0.049,0.882 0.137,1.249c0.014,0.058 0.049,0.156 0.168,0.316c0.214,0.299 0.749,0.767 1.565,1.234c1.424,0.829 3.629,1.663 6.116,2.443c3.741,1.182 8.121,2.282 11.878,3.568c1.883,0.648 3.613,1.337 5.089,2.169c0.738,0.418 1.416,0.873 2.019,1.41c0.598,0.536 1.132,1.16 1.507,1.929c1.883,3.889 3.392,8.892 4.65,14.686c1.881,8.685 3.169,19.138 3.995,30.015c0.826,10.876 1.185,22.168 1.185,32.492c0,9.628 -0.312,18.407 -0.857,25.237c-0.272,3.417 -0.603,6.345 -0.99,8.678c-0.195,1.168 -0.403,2.186 -0.635,3.063c-0.238,0.881 -0.479,1.608 -0.848,2.285c-0.73,1.314 -1.467,2.349 -2.351,3.149c-0.443,0.396 -0.93,0.734 -1.477,0.978c-0.545,0.244 -1.155,0.385 -1.765,0.384c-0.578,0.001 -1.141,-0.124 -1.642,-0.33c-0.977,-0.406 -1.726,-1.064 -2.389,-1.825c-1.231,-1.437 -2.233,-3.341 -3.244,-5.657c-1.75,-4.044 -3.433,-9.353 -5.212,-15.091c-2.658,-8.595 -5.523,-18.149 -8.837,-25.4c-1.648,-3.622 -3.421,-6.657 -5.204,-8.654c-0.888,-1.001 -1.771,-1.736 -2.602,-2.2c-0.837,-0.465 -1.602,-0.673 -2.407,-0.676c-0.193,0 -0.39,0.013 -0.592,0.039c-0.148,0.021 -0.249,0.057 -0.358,0.115c-0.183,0.101 -0.425,0.31 -0.694,0.757c-0.403,0.659 -0.79,1.819 -1.027,3.301c-0.244,1.482 -0.357,3.282 -0.356,5.252c-0.002,4.694 0.637,10.346 1.425,15.402c0.786,5.057 1.72,9.54 2.281,11.945c1.529,6.547 4.04,15.756 7.791,24.518c1.874,4.38 4.058,8.646 6.56,12.403c2.5,3.758 5.319,7.001 8.427,9.373c5.807,4.438 12.028,7.84 17.889,10.118c5.858,2.281 11.369,3.425 15.654,3.421c0.528,0 1.036,-0.017 1.524,-0.051l0.145,-0.01l0.146,0.01c0.487,0.034 0.996,0.051 1.523,0.051c4.285,0.004 9.797,-1.14 15.655,-3.421c5.861,-2.278 12.08,-5.68 17.888,-10.118c3.108,-2.372 5.928,-5.615 8.428,-9.373c3.754,-5.635 6.785,-12.416 9.145,-19.009c2.361,-6.594 4.058,-13.001 5.205,-17.912l2.07,0.483z"/>
    </g>
    <g id="svg_28">
     <path id="svg_29" fill="#2bb673" d="m88.859998,337.939995c-25,-1.36 -61.634,42.928 -69.853,59.498c-8.675,17.492 -20.338,52.228 -11.647,69.712c10.887,21.901 54,39.394 81.5,39.369c27.499,0.025 70.612,-17.468 81.499,-39.369c8.691,-17.484 -2.971,-52.22 -11.646,-69.712c-8.219,-16.57 -44.854,-60.858 -69.853,-59.498"/>
    </g>
    <g id="svg_30">
     <path id="svg_31" fill="#004928" d="m88.859998,337.939995l-0.115,2.123c-0.338,-0.019 -0.68,-0.028 -1.025,-0.028c-2.811,-0.001 -5.864,0.613 -9.068,1.764c-5.607,2.009 -11.65,5.665 -17.611,10.264c-8.949,6.895 -17.723,15.889 -24.882,24.464c-3.581,4.288 -6.761,8.471 -9.363,12.227c-2.602,3.754 -4.627,7.093 -5.884,9.629c-3.199,6.448 -6.843,15.359 -9.668,24.832c-2.828,9.472 -4.829,19.524 -4.825,28.193c-0.004,5.751 0.884,10.867 2.844,14.796c2.515,5.072 7.027,10.078 12.859,14.66c8.74,6.88 20.404,12.802 32.391,16.961c11.983,4.166 24.308,6.573 34.289,6.568l0.116,0c6.651,0.002 14.351,-1.063 22.291,-3.012c11.912,-2.92 24.369,-7.83 34.769,-13.986c5.201,-3.076 9.887,-6.463 13.735,-10.041c3.849,-3.579 6.855,-7.347 8.744,-11.15c1.959,-3.929 2.847,-9.045 2.843,-14.796c0.004,-8.669 -1.996,-18.721 -4.826,-28.193c-2.824,-9.473 -6.467,-18.384 -9.666,-24.832c-1.918,-3.872 -5.613,-9.574 -10.424,-15.837c-7.218,-9.407 -16.978,-20.148 -27.154,-28.458c-5.086,-4.156 -10.275,-7.702 -15.262,-10.18c-4.986,-2.484 -9.754,-3.878 -13.969,-3.873c-0.345,0 -0.686,0.009 -1.024,0.028l-0.116,0.006l-0.114,-0.006l0.115,-2.123l-0.115,-2.123c0.416,-0.023 0.834,-0.033 1.254,-0.033c3.427,0.001 6.95,0.738 10.505,2.013c6.22,2.237 12.572,6.124 18.771,10.898c9.291,7.164 18.229,16.345 25.549,25.106c3.66,4.382 6.91,8.658 9.596,12.532c2.683,3.878 4.796,7.341 6.197,10.16c3.316,6.688 7.029,15.774 9.933,25.507c2.899,9.736 4.998,20.101 5.002,29.408c-0.004,6.173 -0.92,11.907 -3.289,16.688c-2.925,5.871 -7.875,11.258 -14.037,16.11c-9.248,7.27 -21.269,13.34 -33.625,17.635c-12.361,4.289 -25.038,6.799 -35.683,6.804l-0.062,0l0.011,0l-0.065,0c-7.099,-0.001 -15.095,-1.122 -23.304,-3.135c-12.313,-3.023 -25.097,-8.053 -35.923,-14.456c-5.412,-3.203 -10.336,-6.75 -14.464,-10.587c-4.126,-3.838 -7.464,-7.967 -9.655,-12.371c-2.369,-4.781 -3.284,-10.515 -3.289,-16.688c0.005,-9.307 2.103,-19.672 5.003,-29.408c2.904,-9.733 6.617,-18.819 9.932,-25.507c2.131,-4.288 5.929,-10.108 10.861,-16.536c7.395,-9.63 17.311,-20.56 27.837,-29.162c5.266,-4.3 10.684,-8.02 16.058,-10.694c5.374,-2.668 10.718,-4.312 15.862,-4.317c0.42,0 0.838,0.01 1.255,0.033l-0.115,2.123l-0.115,-2.123l0.115,2.123z"/>
    </g>
    <g id="svg_32">
     <path id="svg_33" fill="#004928" d="m100.749998,363.639991c-0.817,-0.757 -2.382,-1.487 -4.426,-1.945c-2.04,-0.468 -4.528,-0.696 -7.151,-0.695c-0.102,0 -0.201,0.001 -0.301,0.001l-0.025,0c-0.103,0 -0.204,-0.001 -0.303,-0.001c-3.497,-0.006 -6.76,0.413 -9.026,1.235c-1.134,0.404 -2.003,0.904 -2.552,1.405c-0.552,0.511 -0.802,0.959 -0.911,1.52l-4.183,-0.764c0.278,-1.564 1.13,-2.915 2.24,-3.908c1.678,-1.501 3.87,-2.366 6.332,-2.938c2.467,-0.562 5.234,-0.8 8.1,-0.802c0.105,0 0.21,0.001 0.313,0.001c0.106,0 0.212,-0.001 0.316,-0.001c3.823,0.006 7.462,0.415 10.462,1.484c1.5,0.541 2.855,1.252 3.969,2.256c1.109,0.993 1.962,2.344 2.24,3.908l-4.184,0.764c-0.109,-0.561 -0.357,-1.009 -0.91,-1.52m21.742,98.206c7.904,3.889 17.504,6.183 27.865,6.182l0,4.252c-14.65,-0.005 -27.941,-4.303 -37.675,-11.385c-4.866,-3.543 -8.844,-7.791 -11.619,-12.57c-2.479,-4.267 -3.978,-8.967 -4.271,-13.898c-0.685,-2.136 -1.06,-4.41 -1.06,-6.773c0.001,-12.221 9.905,-22.125 22.125,-22.126c12.221,0.001 22.125,9.905 22.127,22.126c-0.002,12.22 -9.906,22.124 -22.127,22.126c-5.214,-0.001 -10.004,-1.809 -13.786,-4.827c0.216,0.415 0.433,0.829 0.669,1.237c3.649,6.293 9.842,11.769 17.752,15.656m-40.508,-34.192c0,2.363 -0.375,4.639 -1.061,6.774c-0.292,4.931 -1.792,9.631 -4.27,13.897c-4.165,7.169 -11.024,13.141 -19.552,17.336c-8.533,4.195 -18.754,6.618 -29.743,6.619l0,-4.252c13.816,0.004 26.275,-4.084 35.173,-10.57c4.451,-3.241 8.01,-7.072 10.445,-11.268c0.236,-0.408 0.453,-0.822 0.669,-1.237c-3.782,3.018 -8.571,4.826 -13.787,4.827c-12.22,-0.002 -22.125,-9.906 -22.126,-22.126c0.001,-12.221 9.906,-22.125 22.126,-22.126c12.221,0.001 22.124,9.905 22.126,22.126m16.841,-45.751c3.363,-1.792 5.013,0.017 5.825,3.738c1.09,4.984 -11.163,13.998 -12.33,13.325c-1.41,-0.814 0.573,-13.902 6.505,-17.063m-25.76,3.738c0.814,-3.721 2.464,-5.53 5.826,-3.738c5.932,3.161 7.915,16.249 6.505,17.063c-1.167,0.673 -13.419,-8.341 -12.331,-13.325"/>
    </g>
   </g>
  </g>
 </g>
</svg>