<svg data-v-423bf9ae="" xmlns="http://www.w3.org/2000/svg" viewBox="0 0 291.0975666961427 60" class="font"><!----><!----><!----><g data-v-423bf9ae="" id="d2279d06-ea23-4312-8432-5ce19f6597b9" fill="white" transform="matrix(6.097560881055492,0,0,6.097560881055492,-5.975608394988853,-19.390244247231145)"><path d="M2.76 4.31L2.76 4.31L2.76 12.73L2.76 12.73Q2.76 13.02 2.46 13.02L2.46 13.02L1.27 13.02L1.27 13.02Q0.98 13.02 0.98 12.73L0.98 12.73L0.98 4.31L0.98 4.31Q0.98 4.02 1.27 4.02L1.27 4.02L2.46 4.02L2.46 4.02Q2.76 4.02 2.76 4.31ZM7.43 13.02L7.43 13.02L6.26 13.02L6.26 13.02Q5.95 13.02 5.95 12.73L5.95 12.73L5.95 5.71L5.95 5.71Q5.95 5.56 5.80 5.56L5.80 5.56L4.20 5.56L4.20 5.56Q3.91 5.56 3.91 5.26L3.91 5.26L3.91 4.31L3.91 4.31Q3.91 4.02 4.20 4.02L4.20 4.02L9.49 4.02L9.49 4.02Q9.79 4.02 9.79 4.31L9.79 4.31L9.79 5.26L9.79 5.26Q9.79 5.56 9.49 5.56L9.49 5.56L7.90 5.56L7.90 5.56Q7.73 5.56 7.73 5.71L7.73 5.71L7.73 12.73L7.73 12.73Q7.73 13.02 7.43 13.02ZM16.72 13.02L16.72 13.02L15.54 13.02L15.54 13.02Q15.23 13.02 15.23 12.73L15.23 12.73L15.23 5.71L15.23 5.71Q15.23 5.56 15.08 5.56L15.08 5.56L13.48 5.56L13.48 5.56Q13.19 5.56 13.19 5.26L13.19 5.26L13.19 4.31L13.19 4.31Q13.19 4.02 13.48 4.02L13.48 4.02L18.77 4.02L18.77 4.02Q19.07 4.02 19.07 4.31L19.07 4.31L19.07 5.26L19.07 5.26Q19.07 5.56 18.77 5.56L18.77 5.56L17.18 5.56L17.18 5.56Q17.01 5.56 17.01 5.71L17.01 5.71L17.01 12.73L17.01 12.73Q17.01 13.02 16.72 13.02ZM22.50 13.02L22.50 13.02L22.16 13.02L22.16 13.02Q21.06 13.02 20.45 12.43L20.45 12.43L20.45 12.43Q19.85 11.84 19.85 10.74L19.85 10.74L19.85 8.16L19.85 8.16Q19.85 7.06 20.45 6.47L20.45 6.47L20.45 6.47Q21.06 5.88 22.16 5.88L22.16 5.88L25.40 5.88L25.40 5.88Q25.70 5.88 25.70 6.17L25.70 6.17L25.70 12.73L25.70 12.73Q25.70 13.02 25.40 13.02L25.40 13.02L24.22 13.02L24.22 13.02Q23.93 13.02 23.93 12.73L23.93 12.73L23.93 12.26L23.87 12.26L23.87 12.26Q23.72 12.64 23.32 12.83L23.32 12.83L23.32 12.83Q22.93 13.02 22.50 13.02ZM23.93 10.42L23.93 10.42L23.93 7.57L23.93 7.57Q23.93 7.42 23.76 7.42L23.76 7.42L22.44 7.42L22.44 7.42Q21.99 7.42 21.81 7.61L21.81 7.61L21.81 7.61Q21.63 7.80 21.63 8.25L21.63 8.25L21.63 10.65L21.63 10.65Q21.63 11.10 21.81 11.29L21.81 11.29L21.81 11.29Q21.99 11.48 22.44 11.48L22.44 11.48L22.96 11.48L22.96 11.48Q23.93 11.48 23.93 10.42ZM28.80 13.02L28.80 13.02L27.61 13.02L27.61 13.02Q27.31 13.02 27.31 12.73L27.31 12.73L27.31 3.47L27.31 3.47Q27.31 3.18 27.61 3.18L27.61 3.18L28.80 3.18L28.80 3.18Q29.09 3.18 29.09 3.47L29.09 3.47L29.09 12.73L29.09 12.73Q29.09 13.02 28.80 13.02ZM35.97 13.02L35.97 13.02L32.87 13.02L32.87 13.02Q31.77 13.02 31.16 12.43L31.16 12.43L31.16 12.43Q30.56 11.84 30.56 10.74L30.56 10.74L30.56 8.16L30.56 8.16Q30.56 7.06 31.16 6.47L31.16 6.47L31.16 6.47Q31.77 5.88 32.87 5.88L32.87 5.88L33.98 5.88L33.98 5.88Q35.08 5.88 35.69 6.47L35.69 6.47L35.69 6.47Q36.29 7.06 36.29 8.16L36.29 8.16L36.29 9.94L36.29 9.94Q36.29 10.23 35.99 10.23L35.99 10.23L32.48 10.23L32.48 10.23Q32.31 10.23 32.31 10.39L32.31 10.39L32.31 10.70L32.31 10.70Q32.31 11.13 32.50 11.32L32.50 11.32L32.50 11.32Q32.69 11.51 33.14 11.51L33.14 11.51L35.97 11.51L35.97 11.51Q36.26 11.51 36.26 11.82L36.26 11.82L36.26 12.74L36.26 12.74Q36.26 12.89 36.20 12.96L36.20 12.96L36.20 12.96Q36.13 13.02 35.97 13.02ZM32.48 9.04L32.48 9.04L34.38 9.04L34.38 9.04Q34.54 9.04 34.54 8.89L34.54 8.89L34.54 8.22L34.54 8.22Q34.54 7.77 34.36 7.59L34.36 7.59L34.36 7.59Q34.17 7.41 33.73 7.41L33.73 7.41L33.14 7.41L33.14 7.41Q32.69 7.41 32.51 7.59L32.51 7.59L32.51 7.59Q32.33 7.77 32.33 8.22L32.33 8.22L32.33 8.89L32.33 8.89Q32.33 9.04 32.48 9.04ZM39.10 13.02L39.10 13.02L37.91 13.02L37.91 13.02Q37.62 13.02 37.62 12.73L37.62 12.73L37.62 6.17L37.62 6.17Q37.62 5.88 37.91 5.88L37.91 5.88L39.10 5.88L39.10 5.88Q39.40 5.88 39.40 6.17L39.40 6.17L39.40 6.64L39.45 6.64L39.45 6.64Q39.76 5.88 40.82 5.88L40.82 5.88L41.27 5.88L41.27 5.88Q43.47 5.88 43.47 8.16L43.47 8.16L43.47 12.73L43.47 12.73Q43.47 13.02 43.16 13.02L43.16 13.02L41.99 13.02L41.99 13.02Q41.69 13.02 41.69 12.73L41.69 12.73L41.69 8.25L41.69 8.25Q41.69 7.80 41.50 7.61L41.50 7.61L41.50 7.61Q41.31 7.42 40.87 7.42L40.87 7.42L40.36 7.42L40.36 7.42Q39.40 7.42 39.40 8.48L39.40 8.48L39.40 12.73L39.40 12.73Q39.40 13.02 39.10 13.02ZM45.09 7.42L45.09 7.42L44.53 7.42L44.53 7.42Q44.37 7.42 44.30 7.36L44.30 7.36L44.30 7.36Q44.24 7.31 44.24 7.14L44.24 7.14L44.24 6.17L44.24 6.17Q44.24 5.88 44.53 5.88L44.53 5.88L45.09 5.88L45.09 5.88Q45.25 5.88 45.25 5.73L45.25 5.73L45.25 4.40L45.25 4.40Q45.25 4.10 45.56 4.10L45.56 4.10L46.73 4.10L46.73 4.10Q47.03 4.10 47.03 4.40L47.03 4.40L47.03 5.73L47.03 5.73Q47.03 5.88 47.19 5.88L47.19 5.88L48.29 5.88L48.29 5.88Q48.58 5.88 48.58 6.17L48.58 6.17L48.58 7.14L48.58 7.14Q48.58 7.29 48.52 7.36L48.52 7.36L48.52 7.36Q48.45 7.42 48.29 7.42L48.29 7.42L47.19 7.42L47.19 7.42Q47.03 7.42 47.03 7.57L47.03 7.57L47.03 10.67L47.03 10.67Q47.03 11.10 47.22 11.29L47.22 11.29L47.22 11.29Q47.42 11.48 47.87 11.48L47.87 11.48L48.43 11.48L48.43 11.48Q48.72 11.48 48.72 11.77L48.72 11.77L48.72 12.74L48.72 12.74Q48.72 12.89 48.66 12.96L48.66 12.96L48.66 12.96Q48.59 13.02 48.43 13.02L48.43 13.02L47.57 13.02L47.57 13.02Q46.47 13.02 45.86 12.43L45.86 12.43L45.86 12.43Q45.25 11.84 45.25 10.75L45.25 10.75L45.25 7.57L45.25 7.57Q45.25 7.42 45.09 7.42Z"></path></g><!----><!----></svg>